<svg width="2000px" height="2426px"
 viewBox="0.00 0.00 436.70 530.07" xmlns="http://www.w3.org/2000/svg" xmlns:xlink="http://www.w3.org/1999/xlink">
<g id="graph0" class="graph" transform="scale(1.0 1.0) rotate(0) translate(4 526.07)">
<title>ContextMapGraph</title>
<polygon fill="white" stroke="transparent" points="-4,4 -4,-526.07 432.7,-526.07 432.7,4 -4,4"/>
<!-- ContextoClientes -->
<g id="node1" class="node">
<title>ContextoClientes</title>
<polygon fill="none" stroke="black" stroke-width="2" points="100.98,-27.83 104.92,-25.3 109.14,-22.85 113.64,-20.47 118.39,-18.2 123.39,-16.02 128.6,-13.96 134.02,-12.01 139.62,-10.2 145.39,-8.52 151.32,-6.98 157.37,-5.59 163.54,-4.35 169.8,-3.27 176.14,-2.35 182.54,-1.59 188.99,-0.99 195.46,-0.56 201.95,-0.29 208.42,-0.19 214.88,-0.25 221.31,-0.47 227.68,-0.85 233.99,-1.38 240.22,-2.06 246.36,-2.89 252.39,-3.85 258.31,-4.95 264.11,-6.17 269.76,-7.51 275.27,-8.96 280.61,-10.52 285.79,-12.17 290.78,-13.91 295.59,-15.73 300.19,-17.62 304.59,-19.57 308.77,-21.58 312.73,-23.64 316.46,-25.73 319.94,-27.86 323.18,-30.01 326.16,-32.18 328.87,-34.37 331.32,-36.55 333.49,-38.74 335.38,-40.91 336.97,-43.08 338.28,-45.23 339.28,-47.35 339.97,-49.46 340.36,-51.53 340.43,-53.57 340.19,-55.57 339.62,-57.54 338.73,-59.47 337.51,-61.36 335.97,-63.2 334.1,-65 331.91,-66.75 329.39,-68.45 326.55,-70.11 323.39,-71.71 319.91,-73.27 316.13,-74.77 312.04,-76.23 307.66,-77.63 302.99,-78.97 298.05,-80.26 292.83,-81.5 287.37,-82.67 281.66,-83.79 275.73,-84.84 269.58,-85.83 263.24,-86.75 256.72,-87.6 250.04,-88.38 243.22,-89.09 236.28,-89.72 229.24,-90.27 222.13,-90.73 214.96,-91.11 207.75,-91.39 200.54,-91.59 193.34,-91.68 186.18,-91.67 179.08,-91.55 172.06,-91.33 165.15,-91 158.38,-90.55 151.76,-89.99 145.32,-89.31 139.08,-88.51 133.07,-87.58 127.29,-86.54 121.78,-85.37 116.55,-84.08 111.62,-82.67 107,-81.14 102.72,-79.49 98.78,-77.72 95.2,-75.84 91.99,-73.86 89.15,-71.77 86.7,-69.59 84.65,-67.31 83,-64.94 81.75,-62.5 80.9,-59.99 80.46,-57.42 80.42,-54.79 80.78,-52.12 81.54,-49.42 82.69,-46.69 84.23,-43.95 86.14,-41.2 88.42,-38.47 91.06,-35.75 94.04,-33.07 97.35,-30.42 100.98,-27.83"/>
<text text-anchor="middle" x="214.35" y="-45.01" font-family="sans-serif" font-size="16.00">ContextoClientes</text>
</g>
<!-- ContextoPresentacionDatos -->
<g id="node2" class="node">
<title>ContextoPresentacionDatos</title>
<polygon fill="none" stroke="black" stroke-width="2" points="142.57,-152.01 153.9,-150.87 165.36,-149.86 176.91,-148.96 188.49,-148.2 200.06,-147.57 211.58,-147.07 223,-146.71 234.29,-146.5 245.4,-146.42 256.3,-146.49 266.95,-146.7 277.31,-147.06 287.36,-147.55 297.06,-148.19 306.39,-148.98 315.33,-149.89 323.84,-150.95 331.93,-152.13 339.56,-153.45 346.73,-154.88 353.42,-156.44 359.63,-158.1 365.34,-159.87 370.57,-161.75 375.3,-163.71 379.54,-165.77 383.29,-167.9 386.55,-170.1 389.33,-172.36 391.64,-174.68 393.49,-177.05 394.88,-179.46 395.84,-181.89 396.36,-184.35 396.46,-186.82 396.15,-189.3 395.44,-191.77 394.36,-194.23 392.9,-196.68 391.08,-199.09 388.91,-201.48 386.4,-203.82 383.56,-206.11 380.41,-208.35 376.95,-210.53 373.18,-212.64 369.12,-214.68 364.76,-216.64 360.13,-218.52 355.22,-220.32 350.03,-222.03 344.57,-223.64 338.85,-225.16 332.87,-226.58 326.63,-227.9 320.13,-229.11 313.38,-230.23 306.38,-231.23 299.14,-232.13 291.65,-232.93 283.93,-233.61 275.99,-234.19 267.82,-234.66 259.44,-235.03 250.86,-235.29 242.08,-235.45 233.13,-235.5 224.01,-235.44 214.75,-235.29 205.35,-235.04 195.85,-234.68 186.25,-234.23 176.59,-233.68 166.89,-233.04 157.17,-232.31 147.47,-231.49 137.81,-230.58 128.22,-229.58 118.74,-228.5 109.4,-227.33 100.24,-226.08 91.29,-224.76 82.58,-223.36 74.16,-221.88 66.05,-220.33 58.3,-218.72 50.94,-217.04 44,-215.29 37.52,-213.49 31.54,-211.62 26.08,-209.7 21.17,-207.73 16.84,-205.72 13.12,-203.66 10.03,-201.56 7.6,-199.42 5.83,-197.26 4.75,-195.07 4.36,-192.85 4.67,-190.62 5.7,-188.38 7.44,-186.14 9.89,-183.89 13.04,-181.65 16.9,-179.43 21.43,-177.22 26.64,-175.04 32.49,-172.89 38.97,-170.78 46.06,-168.71 53.71,-166.7 61.91,-164.74 70.62,-162.85 79.81,-161.03 89.42,-159.3 99.44,-157.64 109.8,-156.08 120.47,-154.62 131.41,-153.26 142.57,-152.01"/>
<text text-anchor="middle" x="214.35" y="-189.01" font-family="sans-serif" font-size="16.00">ContextoPresentacionDatos</text>
</g>
<!-- ContextoPresentacionDatos&#45;&gt;ContextoClientes -->
<g id="edge1" class="edge">
<title>ContextoPresentacionDatos&#45;&gt;ContextoClientes</title>
<path fill="none" stroke="black" stroke-width="2" d="M214.35,-146.88C214.35,-129.17 214.35,-108.94 214.35,-91.55"/>
<text text-anchor="middle" x="289.85" y="-119.02" font-family="sans-serif" font-size="12.00"> &#160;&#160;&#160;&#160;&#160;&#160;&#160;&#160;&#160;&#160;&#160;&#160;&#160;&#160;&#160;&#160;&#160;&#160;&#160;&#160;&#160;&#160;&#160;&#160;&#160;&#160;&#160;&#160;&#160;&#160;&#160;&#160;&#160;&#160;&#160;&#160;&#160;&#160;&#160;</text>
<polygon fill="white" stroke="transparent" points="207.35,-82.55 207.35,-99.55 221.35,-99.55 221.35,-82.55 207.35,-82.55"/>
<text text-anchor="start" x="209.35" y="-87.95" font-family="sans-serif" font-size="12.00">D</text>
<polygon fill="white" stroke="transparent" points="207.35,-137.88 207.35,-154.88 221.35,-154.88 221.35,-137.88 207.35,-137.88"/>
<text text-anchor="start" x="209.35" y="-143.28" font-family="sans-serif" font-size="12.00">U</text>
</g>
<!-- ContextoProcesamientoDatos -->
<g id="node3" class="node">
<title>ContextoProcesamientoDatos</title>
<polygon fill="none" stroke="black" stroke-width="2" points="44.43,-359.61 37.51,-357.17 31.09,-354.69 25.21,-352.16 19.9,-349.61 15.18,-347.04 11.07,-344.46 7.59,-341.88 4.76,-339.31 2.59,-336.76 1.09,-334.23 0.28,-331.74 0.15,-329.3 0.71,-326.9 1.96,-324.56 3.9,-322.29 6.52,-320.08 9.81,-317.95 13.76,-315.9 18.35,-313.93 23.56,-312.06 29.38,-310.27 35.78,-308.58 42.73,-306.98 50.21,-305.48 58.19,-304.08 66.63,-302.78 75.51,-301.59 84.78,-300.49 94.41,-299.49 104.37,-298.6 114.61,-297.8 125.09,-297.1 135.79,-296.5 146.65,-296 157.64,-295.59 168.72,-295.27 179.86,-295.05 191,-294.92 202.13,-294.87 213.19,-294.91 224.16,-295.04 235,-295.25 245.68,-295.55 256.18,-295.93 266.45,-296.39 276.48,-296.92 286.24,-297.54 295.7,-298.24 304.85,-299.02 313.66,-299.87 322.12,-300.8 330.2,-301.8 337.91,-302.89 345.22,-304.05 352.13,-305.28 358.62,-306.59 364.68,-307.97 370.32,-309.43 375.53,-310.96 380.3,-312.56 384.63,-314.24 388.52,-315.98 391.97,-317.79 394.99,-319.67 397.56,-321.61 399.7,-323.61 401.4,-325.67 402.67,-327.78 403.51,-329.94 403.93,-332.15 403.92,-334.4 403.5,-336.68 402.66,-338.99 401.41,-341.33 399.74,-343.69 397.68,-346.06 395.21,-348.43 392.34,-350.8 389.08,-353.15 385.43,-355.49 381.39,-357.8 376.96,-360.07 372.16,-362.3 366.98,-364.47 361.42,-366.59 355.51,-368.63 349.23,-370.59 342.6,-372.46 335.62,-374.24 328.3,-375.91 320.66,-377.47 312.7,-378.91 304.43,-380.23 295.87,-381.41 287.02,-382.45 277.91,-383.34 268.56,-384.09 258.97,-384.68 249.18,-385.12 239.19,-385.39 229.04,-385.51 218.75,-385.46 208.35,-385.24 197.86,-384.86 187.31,-384.32 176.73,-383.62 166.15,-382.76 155.6,-381.75 145.13,-380.58 134.76,-379.27 124.52,-377.82 114.46,-376.23 104.61,-374.52 95,-372.68 85.66,-370.73 76.65,-368.68 67.99,-366.54 59.71,-364.3 51.84,-361.99 44.43,-359.61"/>
<text text-anchor="middle" x="214.35" y="-332.87" font-family="sans-serif" font-size="16.00">ContextoProcesamientoDatos</text>
</g>
<!-- ContextoProcesamientoDatos&#45;&gt;ContextoPresentacionDatos -->
<g id="edge2" class="edge">
<title>ContextoProcesamientoDatos&#45;&gt;ContextoPresentacionDatos</title>
<path fill="none" stroke="black" stroke-width="2" d="M214.35,-294.64C214.35,-276.15 214.35,-254.33 214.35,-235.73"/>
<text text-anchor="middle" x="289.85" y="-260.4" font-family="sans-serif" font-size="12.00"> &#160;&#160;&#160;&#160;&#160;&#160;&#160;&#160;&#160;&#160;&#160;&#160;&#160;&#160;&#160;&#160;&#160;&#160;&#160;&#160;&#160;&#160;&#160;&#160;&#160;&#160;&#160;&#160;&#160;&#160;&#160;&#160;&#160;&#160;&#160;&#160;&#160;&#160;&#160;</text>
<polygon fill="white" stroke="transparent" points="207.35,-226.73 207.35,-243.73 221.35,-243.73 221.35,-226.73 207.35,-226.73"/>
<text text-anchor="start" x="209.35" y="-232.13" font-family="sans-serif" font-size="12.00">D</text>
<polygon fill="white" stroke="transparent" points="207.35,-285.64 207.35,-302.64 221.35,-302.64 221.35,-285.64 207.35,-285.64"/>
<text text-anchor="start" x="209.35" y="-291.04" font-family="sans-serif" font-size="12.00">U</text>
</g>
<!-- ContextoRecoleccionDatos -->
<g id="node4" class="node">
<title>ContextoRecoleccionDatos</title>
<polygon fill="none" stroke="black" stroke-width="2" points="202.68,-521.91 190.69,-521.77 178.81,-521.51 167.08,-521.13 155.56,-520.64 144.28,-520.02 133.29,-519.29 122.64,-518.45 112.37,-517.5 102.51,-516.43 93.1,-515.26 84.17,-513.99 75.75,-512.62 67.87,-511.15 60.55,-509.6 53.81,-507.95 47.67,-506.22 42.14,-504.41 37.23,-502.53 32.95,-500.59 29.3,-498.58 26.28,-496.51 23.89,-494.39 22.12,-492.23 20.97,-490.02 20.42,-487.79 20.46,-485.53 21.07,-483.24 22.23,-480.95 23.93,-478.64 26.15,-476.34 28.85,-474.04 32.02,-471.75 35.64,-469.48 39.67,-467.23 44.09,-465.02 48.88,-462.84 54.01,-460.7 59.46,-458.62 65.19,-456.59 71.2,-454.62 77.44,-452.71 83.91,-450.88 90.58,-449.12 97.42,-447.44 104.43,-445.85 111.58,-444.35 118.86,-442.94 126.25,-441.64 133.74,-440.43 141.31,-439.33 148.97,-438.33 156.69,-437.44 164.46,-436.67 172.29,-436.01 180.16,-435.47 188.06,-435.05 196,-434.74 203.96,-434.56 211.94,-434.49 219.94,-434.54 227.95,-434.72 235.96,-435.01 243.97,-435.42 251.97,-435.94 259.95,-436.59 267.91,-437.34 275.83,-438.21 283.71,-439.18 291.54,-440.26 299.3,-441.44 306.97,-442.72 314.54,-444.1 322,-445.57 329.32,-447.13 336.48,-448.77 343.47,-450.5 350.26,-452.29 356.82,-454.16 363.14,-456.09 369.18,-458.08 374.92,-460.12 380.34,-462.22 385.4,-464.35 390.08,-466.53 394.35,-468.73 398.18,-470.96 401.55,-473.21 404.43,-475.47 406.8,-477.75 408.64,-480.02 409.91,-482.28 410.61,-484.54 410.72,-486.78 410.21,-489 409.08,-491.18 407.32,-493.34 404.91,-495.45 401.86,-497.52 398.16,-499.53 393.81,-501.49 388.82,-503.38 383.2,-505.21 376.96,-506.96 370.12,-508.64 362.68,-510.23 354.69,-511.74 346.15,-513.16 337.1,-514.48 327.58,-515.71 317.61,-516.83 307.23,-517.85 296.49,-518.76 285.42,-519.56 274.07,-520.24 262.48,-520.82 250.7,-521.27 238.78,-521.61 226.77,-521.83 214.72,-521.93 202.68,-521.91"/>
<text text-anchor="middle" x="214.35" y="-474.4" font-family="sans-serif" font-size="16.00">ContextoRecoleccionDatos</text>
</g>
<!-- ContextoRecoleccionDatos&#45;&gt;ContextoProcesamientoDatos -->
<g id="edge3" class="edge">
<title>ContextoRecoleccionDatos&#45;&gt;ContextoProcesamientoDatos</title>
<path fill="none" stroke="black" stroke-width="2" d="M214.35,-434.2C214.35,-418.83 214.35,-401.41 214.35,-385.64"/>
<text text-anchor="middle" x="256.35" y="-406.74" font-family="sans-serif" font-size="12.00">Shared Kernel</text>
</g>
</g>
</svg>
