<svg width="2000px" height="1137px"
 viewBox="0.00 0.00 946.24 538.23" xmlns="http://www.w3.org/2000/svg" xmlns:xlink="http://www.w3.org/1999/xlink">
<g id="graph0" class="graph" transform="scale(1.0 1.0) rotate(0) translate(4 534.23)">
<title>ContextMapGraph</title>
<polygon fill="white" stroke="transparent" points="-4,4 -4,-534.23 942.24,-534.23 942.24,4 -4,4"/>
<!-- ContextoClientes -->
<g id="node1" class="node">
<title>ContextoClientes</title>
<polygon fill="none" stroke="black" stroke-width="2" points="560.34,-20.19 565.79,-22.39 570.93,-24.65 575.73,-26.96 580.19,-29.32 584.27,-31.72 587.97,-34.15 591.26,-36.59 594.13,-39.05 596.56,-41.51 598.56,-43.96 600.1,-46.4 601.17,-48.81 601.79,-51.2 601.94,-53.55 601.62,-55.86 600.84,-58.13 599.59,-60.34 597.89,-62.49 595.74,-64.57 593.15,-66.59 590.14,-68.54 586.72,-70.41 582.9,-72.2 578.7,-73.92 574.14,-75.55 569.24,-77.09 564.03,-78.55 558.51,-79.92 552.73,-81.2 546.69,-82.39 540.43,-83.5 533.97,-84.51 527.34,-85.43 520.56,-86.27 513.66,-87.01 506.67,-87.67 499.6,-88.23 492.49,-88.71 485.35,-89.09 478.22,-89.39 471.12,-89.6 464.06,-89.73 457.07,-89.76 450.17,-89.71 443.38,-89.57 436.71,-89.35 430.19,-89.04 423.82,-88.64 417.62,-88.16 411.61,-87.58 405.79,-86.92 400.18,-86.18 394.78,-85.34 389.61,-84.42 384.67,-83.41 379.96,-82.32 375.49,-81.14 371.27,-79.87 367.3,-78.52 363.58,-77.08 360.11,-75.55 356.9,-73.95 353.94,-72.27 351.24,-70.5 348.8,-68.66 346.61,-66.75 344.67,-64.77 342.99,-62.72 341.57,-60.6 340.4,-58.43 339.49,-56.21 338.83,-53.93 338.43,-51.62 338.28,-49.27 338.38,-46.88 338.75,-44.48 339.37,-42.06 340.24,-39.63 341.38,-37.19 342.78,-34.77 344.43,-32.36 346.35,-29.98 348.53,-27.62 350.98,-25.31 353.68,-23.05 356.66,-20.85 359.89,-18.72 363.39,-16.66 367.15,-14.69 371.18,-12.81 375.45,-11.03 379.99,-9.36 384.77,-7.8 389.79,-6.37 395.05,-5.07 400.54,-3.9 406.25,-2.88 412.18,-2 418.3,-1.26 424.6,-0.68 431.08,-0.26 437.72,0.01 444.5,0.12 451.4,0.07 458.4,-0.14 465.49,-0.51 472.64,-1.04 479.83,-1.72 487.04,-2.55 494.25,-3.52 501.42,-4.64 508.54,-5.9 515.57,-7.3 522.5,-8.82 529.29,-10.45 535.93,-12.21 542.37,-14.06 548.61,-16.02 554.6,-18.06 560.34,-20.19"/>
<text text-anchor="middle" x="460.45" y="-44.32" font-family="sans-serif" font-size="16.00">ContextoClientes</text>
</g>
<!-- ContextoPresentacionDatos -->
<g id="node2" class="node">
<title>ContextoPresentacionDatos</title>
<polygon fill="none" stroke="black" stroke-width="2" points="314.75,-221.28 306.8,-219.08 299.31,-216.82 292.29,-214.5 285.79,-212.14 279.84,-209.74 274.45,-207.32 269.65,-204.87 265.46,-202.42 261.91,-199.96 259.01,-197.51 256.76,-195.07 255.19,-192.65 254.29,-190.27 254.07,-187.91 254.54,-185.6 255.68,-183.34 257.5,-181.13 259.98,-178.98 263.11,-176.9 266.88,-174.88 271.28,-172.93 276.27,-171.06 281.84,-169.26 287.97,-167.55 294.61,-165.92 301.76,-164.38 309.37,-162.92 317.41,-161.55 325.85,-160.27 334.66,-159.07 343.79,-157.97 353.21,-156.96 362.88,-156.03 372.76,-155.2 382.83,-154.46 393.03,-153.8 403.34,-153.24 413.71,-152.76 424.12,-152.37 434.52,-152.08 444.88,-151.86 455.17,-151.74 465.37,-151.7 475.43,-151.75 485.34,-151.89 495.06,-152.12 504.58,-152.43 513.87,-152.83 522.91,-153.31 531.68,-153.88 540.17,-154.54 548.35,-155.29 556.22,-156.12 563.77,-157.04 570.98,-158.05 577.84,-159.15 584.35,-160.33 590.51,-161.6 596.3,-162.95 601.73,-164.39 606.79,-165.91 611.47,-167.52 615.79,-169.2 619.73,-170.97 623.29,-172.81 626.49,-174.72 629.31,-176.7 631.76,-178.75 633.83,-180.86 635.54,-183.04 636.87,-185.26 637.83,-187.53 638.42,-189.85 638.63,-192.2 638.48,-194.58 637.95,-196.99 637.05,-199.41 635.77,-201.84 634.11,-204.27 632.07,-206.7 629.66,-209.11 626.86,-211.49 623.68,-213.84 620.11,-216.15 616.16,-218.41 611.83,-220.62 607.11,-222.75 602,-224.81 596.52,-226.78 590.65,-228.66 584.41,-230.44 577.8,-232.11 570.83,-233.66 563.5,-235.09 555.83,-236.4 547.82,-237.56 539.49,-238.59 530.85,-239.47 521.92,-240.2 512.73,-240.78 503.28,-241.21 493.6,-241.48 483.71,-241.58 473.65,-241.53 463.43,-241.32 453.09,-240.96 442.66,-240.43 432.17,-239.75 421.65,-238.92 411.15,-237.94 400.68,-236.82 390.3,-235.56 380.04,-234.17 369.94,-232.65 360.03,-231.01 350.36,-229.26 340.95,-227.4 331.86,-225.45 323.11,-223.4 314.75,-221.28"/>
<text text-anchor="middle" x="460.45" y="-189.55" font-family="sans-serif" font-size="16.00">ContextoPresentacionDatos</text>
</g>
<!-- ContextoPresentacionDatos&#45;&gt;ContextoClientes -->
<g id="edge1" class="edge">
<title>ContextoPresentacionDatos&#45;&gt;ContextoClientes</title>
<path fill="none" stroke="black" stroke-width="2" d="M460.45,-151.69C460.45,-132.34 460.45,-109.25 460.45,-89.88"/>
<text text-anchor="middle" x="535.95" y="-117.63" font-family="sans-serif" font-size="12.00"> &#160;&#160;&#160;&#160;&#160;&#160;&#160;&#160;&#160;&#160;&#160;&#160;&#160;&#160;&#160;&#160;&#160;&#160;&#160;&#160;&#160;&#160;&#160;&#160;&#160;&#160;&#160;&#160;&#160;&#160;&#160;&#160;&#160;&#160;&#160;&#160;&#160;&#160;&#160;</text>
<polygon fill="white" stroke="transparent" points="453.45,-80.88 453.45,-97.88 467.45,-97.88 467.45,-80.88 453.45,-80.88"/>
<text text-anchor="start" x="455.45" y="-86.28" font-family="sans-serif" font-size="12.00">D</text>
<polygon fill="white" stroke="transparent" points="453.45,-142.69 453.45,-159.69 467.45,-159.69 467.45,-142.69 453.45,-142.69"/>
<text text-anchor="start" x="455.45" y="-148.09" font-family="sans-serif" font-size="12.00">U</text>
</g>
<!-- ContextoProcesamientoDatos -->
<g id="node3" class="node">
<title>ContextoProcesamientoDatos</title>
<polygon fill="none" stroke="black" stroke-width="2" points="152.2,-295.92 164.32,-294.88 176.57,-293.96 188.88,-293.17 201.2,-292.51 213.5,-291.97 225.72,-291.57 237.82,-291.31 249.76,-291.18 261.49,-291.2 272.96,-291.36 284.16,-291.65 295.03,-292.09 305.54,-292.67 315.67,-293.38 325.38,-294.23 334.66,-295.22 343.47,-296.33 351.81,-297.58 359.65,-298.94 366.98,-300.43 373.79,-302.03 380.07,-303.73 385.82,-305.54 391.03,-307.44 395.71,-309.44 399.85,-311.51 403.47,-313.66 406.56,-315.87 409.14,-318.15 411.21,-320.47 412.79,-322.84 413.88,-325.24 414.5,-327.67 414.66,-330.11 414.37,-332.57 413.66,-335.03 412.53,-337.48 410.99,-339.92 409.07,-342.33 406.77,-344.72 404.11,-347.07 401.1,-349.37 397.75,-351.63 394.07,-353.83 390.07,-355.96 385.77,-358.03 381.16,-360.03 376.27,-361.94 371.08,-363.77 365.62,-365.52 359.89,-367.17 353.88,-368.73 347.61,-370.19 341.08,-371.56 334.29,-372.82 327.25,-373.97 319.95,-375.02 312.42,-375.97 304.64,-376.8 296.62,-377.53 288.38,-378.15 279.91,-378.66 271.22,-379.06 262.33,-379.36 253.24,-379.55 243.97,-379.63 234.52,-379.61 224.92,-379.48 215.18,-379.25 205.31,-378.93 195.35,-378.5 185.3,-377.97 175.2,-377.35 165.07,-376.64 154.95,-375.83 144.84,-374.93 134.8,-373.95 124.86,-372.88 115.03,-371.72 105.37,-370.49 95.91,-369.18 86.68,-367.79 77.72,-366.33 69.07,-364.79 60.77,-363.19 52.85,-361.52 45.35,-359.79 38.31,-358 31.77,-356.15 25.75,-354.25 20.3,-352.3 15.43,-350.3 11.19,-348.27 7.59,-346.19 4.67,-344.08 2.43,-341.94 0.91,-339.77 0.11,-337.58 0.05,-335.38 0.74,-333.17 2.17,-330.95 4.36,-328.73 7.3,-326.52 10.98,-324.32 15.39,-322.14 20.52,-319.99 26.35,-317.86 32.86,-315.77 40.02,-313.73 47.82,-311.73 56.21,-309.79 65.16,-307.91 74.64,-306.11 84.61,-304.38 95.02,-302.73 105.84,-301.17 117.01,-299.7 128.49,-298.33 140.24,-297.07 152.2,-295.92"/>
<text text-anchor="middle" x="221.45" y="-333.24" font-family="sans-serif" font-size="16.00">ContextoProcesamientoDatos</text>
</g>
<!-- ContextoProcesamientoDatos&#45;&gt;ContextoPresentacionDatos -->
<g id="edge2" class="edge">
<title>ContextoProcesamientoDatos&#45;&gt;ContextoPresentacionDatos</title>
<path fill="none" stroke="black" stroke-width="2" d="M295.76,-291.99C326.04,-274.03 360.86,-253.39 390.67,-235.72"/>
<text text-anchor="middle" x="423.95" y="-262.87" font-family="sans-serif" font-size="12.00"> &#160;&#160;&#160;&#160;&#160;&#160;&#160;&#160;&#160;&#160;&#160;&#160;&#160;&#160;&#160;&#160;&#160;&#160;&#160;&#160;&#160;&#160;&#160;&#160;&#160;&#160;&#160;&#160;&#160;&#160;&#160;&#160;&#160;&#160;&#160;&#160;&#160;&#160;&#160;</text>
<polygon fill="white" stroke="transparent" points="383.67,-226.72 383.67,-243.72 397.67,-243.72 397.67,-226.72 383.67,-226.72"/>
<text text-anchor="start" x="385.67" y="-232.12" font-family="sans-serif" font-size="12.00">D</text>
<polygon fill="white" stroke="transparent" points="288.76,-282.99 288.76,-299.99 302.76,-299.99 302.76,-282.99 288.76,-282.99"/>
<text text-anchor="start" x="290.76" y="-288.39" font-family="sans-serif" font-size="12.00">U</text>
</g>
<!-- ContextoProcesamientoDatosUS -->
<g id="node4" class="node">
<title>ContextoProcesamientoDatosUS</title>
<polygon fill="none" stroke="black" stroke-width="2" points="571.41,-372.35 560.05,-370.67 549.1,-368.9 538.63,-367.05 528.66,-365.13 519.26,-363.14 510.44,-361.09 502.26,-358.99 494.75,-356.85 487.93,-354.67 481.83,-352.45 476.47,-350.22 471.89,-347.96 468.08,-345.7 465.07,-343.43 462.86,-341.16 461.46,-338.91 460.86,-336.66 461.07,-334.44 462.07,-332.24 463.86,-330.07 466.42,-327.93 469.73,-325.83 473.77,-323.78 478.52,-321.77 483.94,-319.82 490.01,-317.92 496.7,-316.07 503.97,-314.29 511.78,-312.57 520.1,-310.92 528.89,-309.33 538.1,-307.82 547.69,-306.38 557.63,-305.01 567.87,-303.72 578.38,-302.51 589.1,-301.38 599.99,-300.33 611.03,-299.37 622.17,-298.49 633.36,-297.7 644.59,-297 655.81,-296.39 666.98,-295.87 678.09,-295.44 689.1,-295.11 699.98,-294.87 710.71,-294.74 721.26,-294.7 731.63,-294.75 741.78,-294.91 751.7,-295.18 761.37,-295.54 770.79,-296.01 779.95,-296.58 788.82,-297.25 797.41,-298.03 805.7,-298.91 813.7,-299.9 821.38,-300.98 828.77,-302.17 835.83,-303.46 842.58,-304.85 849.01,-306.34 855.12,-307.92 860.91,-309.6 866.36,-311.36 871.48,-313.21 876.26,-315.14 880.7,-317.15 884.79,-319.23 888.53,-321.38 891.91,-323.59 894.92,-325.86 897.56,-328.18 899.81,-330.54 901.66,-332.94 903.12,-335.37 904.15,-337.82 904.76,-340.29 904.93,-342.76 904.65,-345.23 903.91,-347.69 902.69,-350.13 900.99,-352.54 898.8,-354.92 896.1,-357.26 892.88,-359.54 889.15,-361.76 884.88,-363.92 880.09,-366 874.75,-367.99 868.88,-369.89 862.47,-371.69 855.53,-373.39 848.06,-374.97 840.07,-376.44 831.57,-377.78 822.57,-378.99 813.09,-380.07 803.15,-381.02 792.77,-381.83 781.98,-382.49 770.81,-383.01 759.27,-383.38 747.42,-383.61 735.28,-383.69 722.89,-383.63 710.3,-383.41 697.54,-383.06 684.66,-382.56 671.71,-381.93 658.73,-381.16 645.78,-380.26 632.9,-379.23 620.15,-378.08 607.58,-376.81 595.23,-375.42 583.16,-373.94 571.41,-372.35"/>
<text text-anchor="middle" x="699.45" y="-333.24" font-family="sans-serif" font-size="16.00">ContextoProcesamientoDatosUS</text>
</g>
<!-- ContextoProcesamientoDatosUS&#45;&gt;ContextoPresentacionDatos -->
<g id="edge3" class="edge">
<title>ContextoProcesamientoDatosUS&#45;&gt;ContextoPresentacionDatos</title>
<path fill="none" stroke="black" stroke-width="2" d="M634.45,-297.51C604.04,-279.48 567.64,-257.9 536.01,-239.15"/>
<text text-anchor="middle" x="662.95" y="-262.87" font-family="sans-serif" font-size="12.00"> &#160;&#160;&#160;&#160;&#160;&#160;&#160;&#160;&#160;&#160;&#160;&#160;&#160;&#160;&#160;&#160;&#160;&#160;&#160;&#160;&#160;&#160;&#160;&#160;&#160;&#160;&#160;&#160;&#160;&#160;&#160;&#160;&#160;&#160;&#160;&#160;&#160;&#160;&#160;</text>
<polygon fill="white" stroke="transparent" points="529.01,-230.15 529.01,-247.15 543.01,-247.15 543.01,-230.15 529.01,-230.15"/>
<text text-anchor="start" x="531.01" y="-235.55" font-family="sans-serif" font-size="12.00">D</text>
<polygon fill="white" stroke="transparent" points="627.45,-288.51 627.45,-305.51 641.45,-305.51 641.45,-288.51 627.45,-288.51"/>
<text text-anchor="start" x="629.45" y="-293.91" font-family="sans-serif" font-size="12.00">U</text>
</g>
<!-- ContextoRecoleccionDatos -->
<g id="node5" class="node">
<title>ContextoRecoleccionDatos</title>
<polygon fill="none" stroke="black" stroke-width="2" points="396.42,-468.37 400.16,-471.09 403.4,-473.82 406.12,-476.56 408.3,-479.31 409.93,-482.03 411.01,-484.74 411.52,-487.41 411.47,-490.03 410.84,-492.61 409.64,-495.12 407.86,-497.56 405.51,-499.92 402.6,-502.2 399.13,-504.39 395.11,-506.48 390.55,-508.46 385.46,-510.34 379.87,-512.1 373.79,-513.75 367.24,-515.28 360.24,-516.7 352.82,-517.99 345,-519.15 336.8,-520.2 328.27,-521.12 319.41,-521.92 310.27,-522.61 300.88,-523.17 291.27,-523.62 281.46,-523.95 271.51,-524.17 261.43,-524.28 251.27,-524.29 241.05,-524.2 230.81,-524.01 220.59,-523.73 210.41,-523.35 200.31,-522.89 190.32,-522.34 180.47,-521.71 170.8,-521 161.32,-520.22 152.07,-519.37 143.07,-518.44 134.34,-517.45 125.92,-516.4 117.82,-515.29 110.06,-514.11 102.67,-512.88 95.65,-511.59 89.02,-510.24 82.8,-508.84 77,-507.39 71.63,-505.89 66.7,-504.33 62.22,-502.72 58.18,-501.07 54.61,-499.36 51.49,-497.61 48.84,-495.81 46.65,-493.97 44.93,-492.09 43.67,-490.16 42.86,-488.19 42.51,-486.19 42.61,-484.15 43.16,-482.07 44.15,-479.97 45.57,-477.84 47.42,-475.7 49.69,-473.53 52.36,-471.35 55.44,-469.17 58.92,-466.98 62.77,-464.8 67,-462.63 71.59,-460.48 76.54,-458.35 81.82,-456.25 87.44,-454.2 93.38,-452.19 99.62,-450.23 106.16,-448.34 112.98,-446.52 120.06,-444.79 127.41,-443.13 134.99,-441.58 142.81,-440.13 150.83,-438.79 159.05,-437.57 167.46,-436.47 176.02,-435.51 184.74,-434.68 193.58,-434 202.53,-433.47 211.58,-433.09 220.69,-432.87 229.86,-432.81 239.05,-432.91 248.25,-433.18 257.44,-433.61 266.59,-434.2 275.67,-434.96 284.67,-435.88 293.56,-436.97 302.31,-438.21 310.91,-439.6 319.31,-441.13 327.5,-442.81 335.45,-444.63 343.14,-446.57 350.54,-448.64 357.63,-450.81 364.37,-453.09 370.75,-455.46 376.75,-457.92 382.34,-460.45 387.49,-463.04 392.19,-465.68 396.42,-468.37"/>
<text text-anchor="middle" x="221.45" y="-477.62" font-family="sans-serif" font-size="16.00">ContextoRecoleccionDatos</text>
</g>
<!-- ContextoRecoleccionDatos&#45;&gt;ContextoProcesamientoDatos -->
<g id="edge4" class="edge">
<title>ContextoRecoleccionDatos&#45;&gt;ContextoProcesamientoDatos</title>
<path fill="none" stroke="black" stroke-width="2" d="M221.45,-432.62C221.45,-415.49 221.45,-396.33 221.45,-379.76"/>
<text text-anchor="middle" x="263.45" y="-405.02" font-family="sans-serif" font-size="12.00">Shared Kernel</text>
</g>
<!-- ContextoRecoleccionDatosUS -->
<g id="node6" class="node">
<title>ContextoRecoleccionDatosUS</title>
<polygon fill="none" stroke="black" stroke-width="2" points="738.82,-524.36 726.05,-524.97 713.25,-525.45 700.47,-525.81 687.77,-526.04 675.19,-526.14 662.78,-526.12 650.59,-525.96 638.66,-525.67 627.04,-525.25 615.76,-524.7 604.87,-524.03 594.4,-523.22 584.38,-522.29 574.85,-521.24 565.82,-520.06 557.32,-518.77 549.37,-517.37 541.99,-515.86 535.18,-514.24 528.97,-512.52 523.36,-510.71 518.34,-508.81 513.93,-506.83 510.11,-504.78 506.89,-502.65 504.26,-500.46 502.2,-498.22 500.71,-495.93 499.78,-493.6 499.38,-491.24 499.51,-488.85 500.14,-486.44 501.25,-484.03 502.84,-481.61 504.87,-479.19 507.33,-476.8 510.21,-474.42 513.47,-472.07 517.1,-469.75 521.08,-467.48 525.39,-465.25 530.03,-463.08 534.96,-460.97 540.17,-458.93 545.66,-456.96 551.41,-455.07 557.39,-453.26 563.62,-451.54 570.07,-449.91 576.73,-448.38 583.6,-446.95 590.67,-445.62 597.93,-444.39 605.38,-443.27 613.01,-442.26 620.82,-441.37 628.81,-440.58 636.96,-439.91 645.27,-439.35 653.74,-438.91 662.36,-438.58 671.13,-438.37 680.03,-438.27 689.06,-438.29 698.21,-438.41 707.47,-438.65 716.83,-439 726.26,-439.45 735.77,-440.01 745.32,-440.68 754.9,-441.44 764.49,-442.31 774.06,-443.27 783.6,-444.32 793.07,-445.46 802.45,-446.7 811.71,-448.01 820.82,-449.41 829.74,-450.89 838.44,-452.44 846.9,-454.06 855.06,-455.74 862.91,-457.49 870.39,-459.3 877.49,-461.17 884.15,-463.09 890.35,-465.05 896.06,-467.06 901.23,-469.11 905.85,-471.19 909.87,-473.3 913.27,-475.44 916.03,-477.59 918.11,-479.76 919.51,-481.95 920.2,-484.14 920.16,-486.32 919.39,-488.51 917.88,-490.68 915.63,-492.84 912.62,-494.98 908.87,-497.09 904.38,-499.17 899.17,-501.21 893.24,-503.21 886.61,-505.16 879.31,-507.05 871.36,-508.89 862.79,-510.66 853.64,-512.36 843.93,-513.98 833.71,-515.53 823.02,-516.98 811.9,-518.35 800.39,-519.61 788.55,-520.78 776.42,-521.84 764.06,-522.8 751.5,-523.64 738.82,-524.36"/>
<text text-anchor="middle" x="699.45" y="-477.62" font-family="sans-serif" font-size="16.00">ContextoRecoleccionDatosUS</text>
</g>
<!-- ContextoRecoleccionDatosUS&#45;&gt;ContextoProcesamientoDatosUS -->
<g id="edge5" class="edge">
<title>ContextoRecoleccionDatosUS&#45;&gt;ContextoProcesamientoDatosUS</title>
<path fill="none" stroke="black" stroke-width="2" d="M699.45,-438.09C699.45,-420.88 699.45,-400.95 699.45,-383.44"/>
<text text-anchor="middle" x="741.45" y="-405.02" font-family="sans-serif" font-size="12.00">Shared Kernel</text>
</g>
</g>
</svg>
